<svg aria-hidden="true" style="position:absolute;width:0;height:0" xmlns="http://www.w3.org/2000/svg" overflow="hidden"><defs><symbol id="icon-Logo-1" viewBox="0 0 57 32"><path d="M26.727 3.165h-.073a7.542 7.542 0 00-.336-.012h-.243c-.212 0-.428.005-.642.016a.4.4 0 00-.049 0c-1.944.11-3.848.596-5.609 1.431l-.231.111V16.52l.54-.183a20.64 20.64 0 011.5-.445 18.34 18.34 0 014.317-.574v1.551c-.193.001-.38.007-.568.016h-.045a17.207 17.207 0 00-3.322.51 16.858 16.858 0 00-3.957 1.542V3.792a15.847 15.847 0 014.151-1.688c1.278-.33 2.593-.5 3.913-.504h.228c.273.007.538.019.788.038.658.046 1.31.15 1.95.311v1.527a12.05 12.05 0 00-1.889-.285l-.039-.003c-.132-.011-.263-.022-.386-.022zm2.688 1.561c.339.026.689.038 1.044.038a16.75 16.75 0 004.114-.528 16.958 16.958 0 003.956-1.543v14.875a15.88 15.88 0 01-4.153 1.688 15.948 15.948 0 01-3.913.503c-1 .008-1.997-.11-2.968-.35V4.438c.229.053.465.102.706.142.394.066.81.115 1.214.145zm7.57.115l-.54.182c-.497.167-.997.316-1.5.449a18.23 18.23 0 01-4.483.575c-.352 0-.676-.01-.989-.03l-.43-.028v12.148l.37.033c.343.03.696.045 1.052.045a14.364 14.364 0 003.531-.457c.95-.238 1.874-.57 2.759-.991l.231-.111V4.843zM19.06 24.113a.788.788 0 00-.6-.243.895.895 0 00-.347.065.778.778 0 00-.444.449.893.893 0 00-.062.335v2.023a.94.94 0 00.08.415.718.718 0 00.48.415c.098.028.2.042.302.042a.855.855 0 00.838-.851v-.226h-.529v.18a.458.458 0 01-.031.18.315.315 0 01-.077.114.38.38 0 01-.222.077.266.266 0 01-.249-.109.479.479 0 01-.07-.271v-1.887a.643.643 0 01.065-.302c.027-.043.066-.077.112-.098s.097-.03.147-.024a.28.28 0 01.236.114c.059.078.09.173.088.271v.175h.524v-.206a.953.953 0 00-.242-.639zM22.202 24.09a.92.92 0 00-1.197 0 .82.82 0 00-.205.283.959.959 0 00-.077.392v1.941a.932.932 0 00.077.397.791.791 0 00.205.271.837.837 0 00.279.171.897.897 0 00.918-.171.849.849 0 00.2-.271.934.934 0 00.077-.397v-1.941a.943.943 0 00-.077-.392.867.867 0 00-.2-.283zm-.247 2.616a.355.355 0 01-.105.28.386.386 0 01-.498 0 .352.352 0 01-.105-.28v-1.941a.355.355 0 01.105-.28.386.386 0 01.498 0 .352.352 0 01.105.28v1.941zM26.329 27.573v-3.674h-.509l-.668 1.945h-.009l-.673-1.945h-.503v3.674h.525v-2.235h.009l.514 1.58h.262l.518-1.58h.009v2.235h.525zM29.311 24.157a.727.727 0 00-.297-.201 1.168 1.168 0 00-.38-.057h-.78v3.674h.523v-1.435h.27a.964.964 0 00.472-.1.759.759 0 00.287-.281.875.875 0 00.12-.32c.021-.138.03-.278.028-.418a2.107 2.107 0 00-.051-.525.785.785 0 00-.193-.338zm-.27 1.12a.45.45 0 01-.049.191.296.296 0 01-.135.129.538.538 0 01-.247.046h-.239v-1.249h.27a.506.506 0 01.236.046.3.3 0 01.123.136.537.537 0 01.046.205v.244c0 .085.005.174 0 .252h-.005zM31.791 23.899h-.429l-.809 3.674h.523l.154-.789h.714l.154.789h.524l-.83-3.674zm-.483 2.384l.258-1.332h.009l.256 1.332h-.524zM35.173 26.112h-.009l-.791-2.213h-.503v3.674h.523v-2.209h.011l.8 2.209h.492v-3.674h-.523v2.213zM38.372 23.899l-.421 1.461h-.011l-.421-1.461h-.554l.719 2.121v1.553h.524V26.02l.719-2.121h-.554zM17.6 28.61h.252v.708h.171v-.708h.251v-.145h-.675v.145zM19.721 28.465l-.331.853h.182l.07-.194h.34l.073.194h.186l-.339-.853h-.182zm-.027.516l.116-.316.116.316h-.232zM21.818 29.004h.197v.11a.332.332 0 01-.202.072c-.034.002-.069-.004-.1-.019s-.059-.036-.081-.063a.352.352 0 01-.063-.222c0-.19.082-.285.246-.285.043-.004.086.007.121.032s.061.062.072.104l.169-.033c-.036-.167-.156-.251-.362-.251a.426.426 0 00-.298.11.413.413 0 00-.122.328.465.465 0 00.109.32.408.408 0 00.324.125.511.511 0 00.362-.136v-.336h-.37v.144zM23.959 28.465h-.173v.853h.598v-.145h-.425v-.708zM25.769 28.465h-.173v.853h.173v-.853zM27.539 29.035l-.349-.57h-.167v.853h.161v-.557l.343.557h.171v-.853h-.158v.57zM29.14 28.943h.425v-.145h-.425v-.187h.457v-.145h-.63v.853h.648v-.145h-.475v-.231zM33.02 28.802h-.336v-.336h-.171v.853h.171v-.373h.336v.373h.171v-.853h-.171v.336zM34.629 28.943h.426v-.145h-.426v-.187h.459v-.145h-.63v.853h.646v-.145h-.475v-.231zM36.812 28.943c.148-.023.224-.102.224-.237a.203.203 0 00-.084-.189.479.479 0 00-.25-.05h-.362v.853h.171v-.357h.034a.231.231 0 01.107.019.181.181 0 01.061.062l.186.271h.205L37 29.148a.6.6 0 00-.189-.205zm-.172-.118h-.127v-.214h.135a.445.445 0 01.174.02c.012.011.022.025.029.04a.116.116 0 01-.004.097.114.114 0 01-.032.037.486.486 0 01-.174.02zM38.458 28.943h.425v-.145h-.425v-.187h.459v-.145h-.631v.853h.648v-.145h-.475v-.231z"/></symbol><symbol id="icon-Logo-2" viewBox="0 0 57 32"><path  d="M19.417 26.187c.008 0 .017.002.025.005s.015.007.02.013l.116.111a.955.955 0 01-.327.211 1.299 1.299 0 01-.464.076 1.213 1.213 0 01-.436-.071.942.942 0 01-.329-.2.878.878 0 01-.212-.308 1.02 1.02 0 01-.074-.396.91.91 0 01.305-.705 1.06 1.06 0 01.349-.201c.143-.048.296-.072.449-.071.143-.003.285.019.417.064.115.043.221.104.313.178l-.097.119a.085.085 0 01-.025.021.066.066 0 01-.039.009.086.086 0 01-.042-.013l-.052-.032-.073-.04a.818.818 0 00-.229-.071 1.11 1.11 0 00-.173-.013.952.952 0 00-.323.053.683.683 0 00-.417.387.81.81 0 00-.06.313.795.795 0 00.06.318.68.68 0 00.402.383.867.867 0 00.3.05c.059.001.119-.003.177-.01a.69.69 0 00.384-.163.09.09 0 01.055-.02zM22.776 25.629a.974.974 0 01-.078.393c-.047.114-.122.218-.219.305s-.214.155-.344.2a1.42 1.42 0 01-.884 0 1.027 1.027 0 01-.342-.201.904.904 0 01-.221-.308 1.022 1.022 0 010-.787.94.94 0 01.221-.31c.097-.084.214-.15.342-.193.284-.096.6-.096.884 0 .129.046.246.114.343.201a.914.914 0 01.298.699zm-.306 0a.84.84 0 00-.055-.316.653.653 0 00-.402-.385 1.025 1.025 0 00-.643 0 .683.683 0 00-.246.149.63.63 0 00-.157.236.927.927 0 000 .632.643.643 0 00.403.384c.207.067.435.067.643 0a.698.698 0 00.246-.148.662.662 0 00.156-.236.82.82 0 00.055-.316zM25.067 25.96l.03.071.033-.071a.68.68 0 01.038-.07l.743-1.174c.015-.02.028-.033.042-.037a.207.207 0 01.061-.006h.22v1.909h-.26v-1.404-.059a.726.726 0 010-.066l-.747 1.19c-.009.018-.025.033-.044.043s-.041.016-.064.016h-.042c-.023 0-.045-.005-.064-.016s-.034-.026-.044-.044l-.769-1.198v1.533h-.252v-1.905h.22a.207.207 0 01.061.006.087.087 0 01.041.037l.759 1.175a.418.418 0 01.038.068zM27.864 25.865v.715h-.291v-1.906h.649c.122-.002.244.012.362.042a.724.724 0 01.256.119.492.492 0 01.145.187.576.576 0 01.049.244.54.54 0 01-.211.435.752.752 0 01-.257.126 1.25 1.25 0 01-.35.044l-.352-.005zm0-.205h.352a.808.808 0 00.225-.029.52.52 0 00.163-.082.358.358 0 00.134-.286c.003-.053-.007-.106-.029-.155s-.057-.094-.102-.13a.624.624 0 00-.391-.102h-.352v.786zM31.772 26.583h-.23a.109.109 0 01-.064-.018.123.123 0 01-.038-.044l-.198-.461h-.993l-.205.461a.107.107 0 01-.101.062h-.23l.872-1.909h.302l.884 1.909zm-1.439-.709h.82l-.346-.777a1.276 1.276 0 01-.065-.179l-.034.1a.98.98 0 01-.032.081l-.343.776zM33.029 24.682c.017.008.032.02.044.034l1.272 1.439v-.067-1.415h.26v1.909h-.145a.136.136 0 01-.06-.011.165.165 0 01-.047-.035l-1.271-1.438a.726.726 0 010 .066v1.419h-.26v-1.909h.154a.15.15 0 01.052.009zM36.748 25.823v.758h-.291v-.758l-.804-1.15h.26a.114.114 0 01.063.016.159.159 0 01.039.043l.503.742a.717.717 0 01.088.169l.038-.082a.745.745 0 01.049-.087l.496-.747a.18.18 0 01.038-.04.098.098 0 01.063-.019h.263l-.806 1.155zM24.923 21.47c.127.014.255.025.384.035 1.962-.763 3.622-2.011 4.772-3.588s1.74-3.415 1.695-5.282l-2.162-1.879c.44 1.988.234 4.043-.594 5.935s-2.245 3.547-4.094 4.779z"/><path  d="M24.151 21.383l.058.01c1.975-1.228 3.482-2.942 4.323-4.921s.981-4.133.4-6.181l-3.08-2.676c1.246 2.2 1.747 4.661 1.446 7.098s-1.393 4.75-3.147 6.67zM34.596 14.841c-.523 2.052-1.794 3.902-3.624 5.276-.534.404-1.111.763-1.722 1.074 1.49-.38 2.859-1.053 4.003-1.966s2.03-2.042 2.592-3.3l-1.249-1.084z"/><path  d="M34.106 14.539l-1.778-1.545c-.034 1.762-.61 3.483-1.669 4.986s-2.562 2.731-4.352 3.559h.009c.399 0 .798-.021 1.194-.062 1.673-.593 3.151-1.537 4.303-2.748s1.94-2.65 2.295-4.189zM24.409 6.486L22.287 4.64c-1.897.637-3.528 1.756-4.68 3.212s-1.772 3.179-1.778 4.946c.007 1.952.763 3.846 2.149 5.383s3.322 2.628 5.501 3.101c1.946-2.06 3.085-4.605 3.252-7.266s-.647-5.299-2.323-7.53zM39.008 14.255c-.008-2.316-1.07-4.535-2.955-6.173s-4.439-2.561-7.105-2.567a11.3 11.3 0 00-3.602.582l12.99 11.286a7.647 7.647 0 00.672-3.128z"/></symbol><symbol id="icon-Logo-3" viewBox="0 0 65 32"><path  d="M10.016 9.983h-.002c-1.827 0-3.308 1.316-3.308 2.94v.002c0 1.624 1.481 2.94 3.308 2.94h.002c1.827 0 3.308-1.316 3.308-2.94v-.002c0-1.624-1.481-2.94-3.308-2.94zM34.434 9.043c-.005-2.255-1.015-4.417-2.81-6.012S27.398.538 24.86.533c-2.538.004-4.972.902-6.767 2.497s-2.806 3.757-2.811 6.013v12.436s19.149-1.895 19.151-12.434v-.002zM0 25.562c.005 1.569.708 3.073 1.956 4.183s2.94 1.735 4.706 1.74c1.765-.005 3.457-.63 4.705-1.739s1.952-2.613 1.957-4.182V16.91S-.001 18.23-.001 25.562zm6.662 1.55c-.345 0-.682-.091-.969-.261s-.511-.413-.643-.696-.167-.595-.099-.896.233-.577.477-.794.555-.364.893-.424c.338-.06.689-.029 1.008.088s.591.316.783.571a1.404 1.404 0 01.163 1.456c-.087.189-.216.36-.378.505-.162.145-.355.259-.567.338s-.439.119-.669.119v-.006zM20.128 26.258h-1.286v1.328h-.67v-3.25h2.116v.542h-1.446v.839h1.286v.54zm3.218-.223c0 .32-.057.6-.17.842s-.275.427-.487.558c-.21.131-.451.196-.723.196a1.289 1.289 0 01-1.212-.748 1.907 1.907 0 01-.176-.83v-.161c0-.32.057-.601.172-.844a1.285 1.285 0 011.212-.756c.271 0 .511.065.721.196.211.129.374.316.489.56.116.242.174.523.174.841v.145zm-.678-.147c0-.341-.061-.6-.183-.777s-.296-.266-.522-.266a.596.596 0 00-.52.263c-.122.174-.184.43-.185.768v.158c0 .332.061.589.183.772s.298.275.527.275a.592.592 0 00.518-.263c.121-.177.182-.434.183-.772v-.158zm2.85.846a.342.342 0 00-.134-.29c-.089-.068-.25-.14-.482-.214a3.465 3.465 0 01-.551-.223c-.369-.199-.554-.468-.554-.806 0-.176.049-.332.147-.469a.985.985 0 01.426-.324c.186-.077.394-.116.625-.116.232 0 .439.042.621.127a.978.978 0 01.422.355.926.926 0 01.152.522h-.67a.434.434 0 00-.141-.346c-.094-.083-.225-.125-.395-.125-.164 0-.291.035-.382.105a.323.323 0 00-.136.272c0 .106.053.194.158.266.107.071.264.138.471.201.381.115.659.257.833.426s.261.381.261.634a.785.785 0 01-.319.663c-.213.159-.499.239-.859.239-.25 0-.478-.045-.683-.136a1.1 1.1 0 01-.471-.377.97.97 0 01-.161-.554h.672c0 .359.214.538.643.538a.631.631 0 00.373-.096.318.318 0 00.134-.272zm3.574-1.855h-.996v2.708h-.67v-2.708h-.982v-.542h2.647v.542zm2.339 1.299h-1.286v.871h1.509v.538h-2.179v-3.25h2.174v.542h-1.504v.775h1.286v.525zm1.82.218h-.533v1.19h-.67v-3.25h1.208c.384 0 .68.086.888.257s.312.413.312.725a.998.998 0 01-.145.556.979.979 0 01-.435.353l.703 1.328v.031h-.719l-.609-1.19zm-.534-.542h.54c.168 0 .298-.042.391-.127a.463.463 0 00.138-.355.49.49 0 00-.132-.362c-.086-.088-.219-.132-.4-.132h-.538v.975zm4.058.587v1.145h-.67v-3.25h1.268c.244 0 .458.045.643.134a.98.98 0 01.429.382c.1.164.15.35.15.56 0 .318-.109.57-.328.754-.217.183-.519.275-.904.275h-.587zm0-.542h.598c.177 0 .312-.042.404-.125.094-.083.141-.202.141-.357 0-.159-.047-.288-.141-.386s-.223-.149-.388-.152h-.614v1.02zm4.237.279h-1.286v.871h1.509v.538h-2.179v-3.25h2.174v.542h-1.504v.775h1.286v.525zm3.107-1.299h-.995v2.708h-.67v-2.708h-.982v-.542h2.647v.542zm2.339 1.299h-1.286v.871h1.509v.538h-2.178v-3.25h2.174v.542h-1.504v.775h1.286v.525zm1.819.218h-.533v1.19h-.67v-3.25h1.208c.384 0 .68.086.888.257s.313.413.313.725a.998.998 0 01-.145.556.979.979 0 01-.435.353l.703 1.328v.031h-.719l-.609-1.19zm-.533-.542h.54c.168 0 .298-.042.391-.127a.463.463 0 00.138-.355.49.49 0 00-.132-.362c-.086-.088-.219-.132-.4-.132h-.538v.975zm3.935.88a.342.342 0 00-.134-.29c-.089-.068-.25-.14-.482-.214a3.465 3.465 0 01-.551-.223c-.369-.199-.554-.468-.554-.806 0-.176.049-.332.147-.469a.985.985 0 01.426-.324c.186-.077.394-.116.625-.116.232 0 .439.042.621.127a.973.973 0 01.422.355.926.926 0 01.152.522h-.67a.434.434 0 00-.141-.346c-.094-.083-.225-.125-.395-.125-.164 0-.291.035-.382.105a.323.323 0 00-.136.272c0 .106.053.194.158.266.107.071.264.138.471.201.381.115.658.257.833.426s.261.381.261.634a.785.785 0 01-.319.663c-.213.159-.499.239-.859.239-.25 0-.478-.045-.683-.136a1.1 1.1 0 01-.471-.377.97.97 0 01-.161-.554h.672c0 .359.214.538.643.538a.634.634 0 00.373-.096.318.318 0 00.134-.272z"/></symbol><symbol id="icon-Logo-4" viewBox="0 0 43 32"><path  d="M3.239 26.373a.98.98 0 01.25.665c.008.158-.022.315-.089.46s-.169.275-.298.38a1.788 1.788 0 01-1.125.307H0V23.97h1.937c.382-.023.761.076 1.073.28.125.096.224.217.289.354s.095.286.086.435a.923.923 0 01-.225.645 1.06 1.06 0 01-.589.329c.262.044.499.172.668.36zM.92 25.737h.828a.835.835 0 00.526-.14c.062-.052.111-.116.141-.187s.043-.148.036-.225c.006-.076-.007-.153-.037-.224s-.078-.135-.138-.188a.858.858 0 00-.542-.142H.92v1.106zm1.435 1.616c.066-.053.119-.119.153-.193s.049-.155.043-.235c.005-.081-.01-.163-.045-.238s-.088-.142-.155-.195a.907.907 0 00-.562-.152H.921v1.159H1.8a.93.93 0 00.556-.146zM7.197 28.185L6.12 26.538h-.405v1.647h-.927V23.97h1.754c.442-.028.879.1 1.221.358.245.229.393.53.417.85s-.078.637-.287.894a1.46 1.46 0 01-.837.428l1.147 1.684H7.195zm-1.482-2.222h.758c.526 0 .789-.213.789-.638a.586.586 0 00-.193-.473.87.87 0 00-.596-.171h-.767l.009 1.283zM12.262 27.337h-1.847l-.326.848h-.972l1.696-4.168h1.05l1.689 4.168h-.972l-.319-.848zm-.247-.639l-.675-1.779-.675 1.779h1.349zM18.602 28.185h-.92l-2.062-2.867v2.867h-.918V23.97h.918l2.062 2.883V23.97h.92v4.215zM23.852 27.176c-.19.318-.48.577-.832.743-.4.185-.845.276-1.293.266H20.09V23.97h1.637c.448-.011.891.078 1.293.259.352.163.642.419.832.735.189.343.288.722.288 1.106s-.099.763-.288 1.106zm-1.053-.101c.263-.28.407-.637.407-1.006s-.144-.726-.407-1.006a1.692 1.692 0 00-1.152-.358h-.639v2.729h.639a1.7 1.7 0 001.152-.358zM12.838.522s11.873 4.104 11.621 10.043V20.61s-11.864-4.106-11.617-10.045L12.837.522zM35.037 18.259c2.242-1.413 4.836-2.288 7.544-2.545v-3.145c-3.12 1.101-5.766 3.097-7.544 5.69z"/><path  d="M33.69 19.206c1.835-3.384 5.017-5.995 8.891-7.296V2.849S25.672 8.695 26.03 17.153v14.302s.753-.262 1.939-.752c0-.457 0-.918.054-1.382.35-3.926 2.389-7.565 5.668-10.115z"/><path  d="M32.081 24.52a13.62 13.62 0 01.592-2.928c-2.042 2.203-3.278 4.936-3.536 7.815-.025.272-.038.544-.045.824a50.77 50.77 0 003.252-1.569 13.564 13.564 0 01-.263-4.141zM32.754 24.571a12.973 12.973 0 00.209 3.75c4.62-2.531 9.811-6.442 9.611-11.168v-.412c-3.301.338-6.389 1.659-8.79 3.76a13.125 13.125 0 00-1.03 4.069z"/></symbol><symbol id="icon-Logo-5" viewBox="0 0 57 32"><path  d="M28.493 14.618a1.58 1.58 0 01-.323-1.061v-1.538c0-.471.107-.83.321-1.075s.581-.367 1.102-.366c.489 0 .836.104 1.042.313.224.266.333.592.308.92v.361h-.875v-.366c.003-.12-.005-.24-.025-.358a.352.352 0 00-.125-.213.505.505 0 00-.317-.083.533.533 0 00-.333.088.412.412 0 00-.145.235 1.74 1.74 0 00-.034.38v1.866c-.014.18.025.36.112.524.044.055.104.099.175.127s.149.038.226.029a.478.478 0 00.31-.084.375.375 0 00.13-.227c.02-.124.03-.249.027-.374v-.379h.875v.346c.025.342-.082.682-.303.967-.201.228-.544.343-1.047.343s-.884-.122-1.1-.375zM32.137 14.633c-.221-.239-.332-.588-.332-1.05v-1.617c0-.457.11-.802.332-1.037s.591-.351 1.109-.35c.515 0 .882.117 1.103.35.221.235.333.58.333 1.037v1.617c0 .457-.112.807-.337 1.048s-.591.361-1.1.361c-.509 0-.886-.122-1.109-.36zm1.517-.388a.906.906 0 00.105-.479v-1.98a.88.88 0 00-.103-.469c-.044-.057-.106-.101-.179-.129s-.152-.037-.231-.027c-.079-.009-.159 0-.231.028s-.135.072-.18.129a.853.853 0 00-.105.469v1.99a.888.888 0 00.105.479c.051.05.114.091.185.119a.612.612 0 00.635-.119v-.009zM35.735 10.626h.942l.708 2.984.725-2.984h.917l.092 4.308h-.678l-.072-2.994-.699 2.994h-.544l-.725-3.005-.067 3.005h-.685l.085-4.308zM40.176 10.626h1.468c.846 0 1.268.408 1.268 1.223 0 .781-.445 1.171-1.335 1.17h-.5v1.915h-.906l.005-4.308zm1.254 1.841a.7.7 0 00.498-.136.693.693 0 00.13-.486 1.327 1.327 0 00-.044-.391c-.013-.043-.036-.083-.067-.118s-.07-.065-.114-.087a.94.94 0 00-.404-.069h-.352v1.287h.352zM44.218 10.626h.973l.998 4.308h-.844l-.197-.993h-.868l-.203.993h-.857l.998-4.308zm.832 2.815l-.339-1.808-.339 1.808h.678zM46.996 10.626h.634l1.214 2.457v-2.457h.752v4.308h-.603l-1.221-2.565v2.565h-.777l.002-4.308zM51.357 13.291l-1.009-2.659h.85l.616 1.708.578-1.708h.832l-.997 2.659v1.642h-.87v-1.642zM29.892 16.817v.225h-.739v1.75h-.31v-1.75H28.1v-.225h1.792zM32.209 18.793h-.239a.105.105 0 01-.067-.019.102.102 0 01-.04-.045l-.214-.469h-1.026l-.214.469a.119.119 0 01-.033.053.112.112 0 01-.067.019h-.239l.906-1.976h.315l.917 1.968zm-1.5-.734h.855l-.362-.804a1.426 1.426 0 01-.067-.186 4.03 4.03 0 00-.034.105l-.033.083-.359.802zM33.771 18.599a1.018 1.018 0 00.315-.023.961.961 0 00.13-.036c.04-.014.08-.031.121-.048v-.444h-.362c-.009 0-.018-.001-.026-.003s-.016-.007-.023-.012c-.006-.004-.011-.01-.014-.016s-.005-.013-.004-.02v-.152h.703v.757a1.407 1.407 0 01-.609.202 2.591 2.591 0 01-.264.012 1.41 1.41 0 01-.457-.073 1.104 1.104 0 01-.362-.206.956.956 0 01-.234-.313.99.99 0 01-.083-.41.907.907 0 01.316-.726c.103-.089.227-.159.362-.205.155-.05.32-.075.486-.074.084 0 .169.006.252.017a1.21 1.21 0 01.397.128c.056.031.108.065.158.103l-.087.122c-.007.011-.017.021-.029.027s-.027.01-.041.01a.118.118 0 01-.056-.016 1.344 1.344 0 01-.089-.047.727.727 0 00-.121-.053 1.171 1.171 0 00-.167-.044 1.362 1.362 0 00-.23-.017 1.06 1.06 0 00-.35.055.704.704 0 00-.435.402.924.924 0 000 .659.756.756 0 00.446.405c.115.034.237.047.359.039zM36.659 18.567h.989v.225h-1.292v-1.976h.31l-.007 1.75zM38.678 18.792h-.31v-1.976h.31v1.976zM39.83 16.826a.151.151 0 01.047.036l1.324 1.489a.41.41 0 010-.07v-1.472h.27v1.984h-.156a.14.14 0 01-.067-.011.184.184 0 01-.049-.038l-1.323-1.488v1.536h-.259v-1.976h.161c.017 0 .035.003.051.009zM43.753 16.817v.217h-1.098v.652h.89v.21h-.89v.674h1.098v.217h-1.417v-1.971h1.417zM11.286 4.616l13.757 3.372v11.818l-13.757-3.371V4.616zm-.882-1.007V17.01l15.52 3.806V7.417L10.404 3.61z"/><path  d="M18.722 27.036L3.2 23.227V9.828l15.522 3.807v13.401z"/><path  d="M10.661 4.465l13.578 3.33-5.774 4.987L4.885 9.45l5.776-4.985zm-.257-.856L3.2 9.828l15.522 3.807 7.202-6.219-15.52-3.807zM19.595 26.282l6.329-5.465-6.329-1.553v7.018z"/></symbol><symbol id="icon-Logo" viewBox="0 0 57 32"><path  d="M20.267 3.733l3.738 3.538-6.938-.004v17.166H35.2v-6.564l3.733 3.534V3.732H20.266zm14.769 13.722L24.439 7.423h10.597v10.032zm-3.29 4.468h-11.81V10.378h.835v10.764h10.975v.782zm-9.021 4.797l-.436.898-.436-.898h-.366l.637 1.198v.698h.331v-.698l.635-1.198h-.365zm.548 1.895l.154-.441h.734l.155.441h.344l-.717-1.896h-.296l-.716 1.896h.342zm.521-1.493l.275.786h-.549l.275-.786zm1.737.741a.429.429 0 00-.072.241c0 .16.056.29.168.389s.263.148.451.148.349-.051.484-.152l.107.126h.367l-.279-.329a.95.95 0 00.164-.574h-.275a.758.758 0 01-.079.348l-.366-.432.129-.094c.091-.066.157-.132.197-.198s.06-.14.06-.219c0-.12-.044-.22-.133-.301s-.201-.122-.339-.122c-.153 0-.274.043-.365.13s-.135.203-.135.352c0 .061.014.124.043.189s.081.144.155.237a1.12 1.12 0 00-.283.262zm.855.419a.485.485 0 01-.299.107c-.095 0-.17-.027-.227-.082s-.085-.126-.085-.214c0-.102.052-.192.156-.271l.04-.029.414.488zm-.34-.84c-.089-.11-.134-.202-.134-.275 0-.063.018-.116.055-.158s.085-.063.147-.063c.057 0 .105.018.142.053s.056.077.056.126a.235.235 0 01-.081.184l-.04.033-.145.099zm3.086 1.03a.689.689 0 00.224-.474h-.328c-.017.135-.059.232-.124.29s-.162.087-.292.087c-.142 0-.249-.054-.323-.161s-.109-.264-.109-.469v-.168c.002-.202.041-.355.117-.46s.188-.158.331-.158c.123 0 .217.03.28.091s.104.158.12.294h.328c-.021-.207-.095-.368-.223-.482s-.296-.171-.505-.171a.718.718 0 00-.683.426 1.116 1.116 0 00-.095.473v.177c.003.174.035.328.098.46s.151.234.266.306a.748.748 0 00.4.107c.216 0 .389-.056.52-.169zm1.936-.266c.064-.141.096-.304.096-.49v-.105c-.001-.185-.034-.347-.099-.486a.726.726 0 00-.687-.432.757.757 0 00-.411.113c-.119.075-.211.183-.277.324s-.098.305-.098.49v.107c.001.181.034.342.099.48s.159.246.279.322a.764.764 0 00.411.112c.155 0 .293-.037.411-.112s.212-.183.276-.323zm-.352-1.071c.08.112.12.273.12.483v.099c0 .214-.04.376-.119.487s-.19.167-.336.167c-.144 0-.257-.057-.339-.171s-.121-.275-.121-.483v-.109c.002-.204.043-.362.122-.473s.192-.168.335-.168c.146 0 .258.056.337.168z"/></symbol></defs></svg>